<?xml version="1.0" encoding="UTF-8" standalone="no"?>
<svg
   class="img-fluid"
   id="outputsvg"
   width="668"
   height="668"
   viewBox="0 0 6680 6680"
   version="1.1"
   xmlns="http://www.w3.org/2000/svg"
   xmlns:svg="http://www.w3.org/2000/svg">
  <defs
     id="defs2" />
  <rect
     style="fill:#373b40;fill-opacity:1;stroke-width:15"
     id="rect2"
     width="6663.3623"
     height="6655.0435"
     x="0"
     y="0" />
  <g
     id="l6fo7PfjSo9emswG0fDmD3Q"
     fill="#fcfcf9"
     transform="matrix(1.1285956,0,0,1.1285956,-345.27191,-267.19495)">
    <g
       id="g2">
      <path
         id="p1dHk8jfa"
         d="m 1475,4731 c -48,-12 -66,-25 -128,-90 -76,-79 -112,-156 -111,-236 0,-58 9,-79 156,-385 213,-444 280,-608 357,-873 78,-267 142,-631 145,-817 1,-108 -2,-135 -23,-196 -33,-98 -28,-112 72,-186 177,-131 261,-140 341,-35 15,20 94,163 175,319 82,156 173,325 203,376 l 55,94 193,-282 c 106,-154 208,-294 227,-310 41,-37 81,-39 120,-6 15,13 69,77 118,141 169,221 392,490 414,500 20,8 24,3 154,-205 211,-340 314,-528 394,-723 65,-161 68,-165 112,-178 86,-26 186,26 334,172 l 90,88 -6,98 c -3,54 -11,157 -18,228 -23,256 5,763 62,1100 68,410 159,710 305,1011 36,74 64,144 64,162 0,56 -127,146 -250,178 -120,31 -282,-13 -328,-89 -27,-43 -94,-294 -136,-507 -72,-366 -144,-864 -201,-1392 -4,-32 -10,-58 -14,-58 -13,0 -43,38 -148,185 -248,348 -527,787 -631,993 l -67,133 -5,107 c -3,59 -11,117 -18,129 -16,29 -86,85 -142,114 -35,18 -62,23 -117,24 -88,0 -105,-13 -170,-135 -81,-149 -189,-342 -257,-457 -461,-784 -541,-911 -562,-890 -4,3 -28,104 -55,224 -116,516 -296,1117 -409,1368 -126,276 -182,335 -295,306 z M 3288,3588 c 16,-24 112,-178 214,-343 l 186,-301 -123,-127 c -67,-70 -128,-127 -136,-127 -8,0 -32,26 -54,57 -91,128 -133,178 -152,181 -16,2 -41,-24 -112,-117 -51,-67 -98,-121 -104,-121 -19,0 -199,221 -193,237 10,24 329,557 378,631 27,39 53,72 58,72 5,0 22,-19 38,-42 z" />
    </g>
  </g>
</svg>
